<?xml version="1.0" encoding="UTF-8" standalone="no"?>
<svg
   version="1.1"
   width="276.0242"
   height="133.00046"
   id="svg75"
   sodipodi:docname="logo.svg"
   inkscape:version="1.4 (e7c3feb100, 2024-10-09)"
   xml:space="preserve"
   inkscape:export-filename="anvil3.png"
   inkscape:export-xdpi="96"
   inkscape:export-ydpi="96"
   xmlns:inkscape="http://www.inkscape.org/namespaces/inkscape"
   xmlns:sodipodi="http://sodipodi.sourceforge.net/DTD/sodipodi-0.dtd"
   xmlns="http://www.w3.org/2000/svg"
   xmlns:svg="http://www.w3.org/2000/svg"><defs
     id="defs75" /><sodipodi:namedview
     id="namedview75"
     pagecolor="#ffffff"
     bordercolor="#000000"
     borderopacity="0.25"
     inkscape:showpageshadow="2"
     inkscape:pageopacity="0.0"
     inkscape:pagecheckerboard="false"
     inkscape:deskcolor="#d1d1d1"
     inkscape:clip-to-page="false"
     inkscape:zoom="2.8284271"
     inkscape:cx="149.72986"
     inkscape:cy="95.459416"
     inkscape:window-width="1920"
     inkscape:window-height="1029"
     inkscape:window-x="0"
     inkscape:window-y="27"
     inkscape:window-maximized="1"
     inkscape:current-layer="svg75" /><g
     id="g77"
     transform="translate(-53.540138,-165.28098)"><path
       d="m 130.56434,165.28099 c 65.67,0 131.34,0 199,0 0,2.97 0,5.94 0,9 -2.31,0 -4.62,0 -7,0 -0.0412,1.155 -0.0825,2.31 -0.125,3.5 -1.96356,17.29025 -12.39573,33.55942 -25.40234,44.65625 -9.7385,7.43616 -19.98646,12.39302 -31.78516,15.40625 -8.21491,2.10721 -15.5363,4.45146 -20.1875,12.0625 -2.95172,6.64138 -3.81229,13.79624 -1.78125,20.88281 0.97252,2.31365 1.94396,4.36555 3.28125,6.49219 0.59813,1.05832 1.19625,2.11664 1.8125,3.20703 1.94977,2.28271 3.04041,2.76333 6.02857,3.36548 3.502,0.24383 6.96108,0.31004 10.47143,0.30249 1.21752,0.0206 2.43504,0.0413 3.68946,0.0625 2.99905,0.0471 5.99863,0.0583 8.99804,0.0625 0,4.62 0,9.24 0,14 -43.89,0 -87.78,0 -133,0 0,-4.62 0,-9.24 0,-14 7.92,-0.33 15.84,-0.66 24,-1 0.96938,-2.3925 1.93875,-4.785 2.9375,-7.25 0.30414,-0.74669 0.60828,-1.49338 0.92164,-2.26269 4.01635,-9.97849 5.07833,-20.65911 1.07836,-30.86231 -5.18559,-10.77677 -11.78598,-17.76516 -23.21093,-21.77344 -2.10793,-0.66592 -4.22617,-1.30049 -6.35547,-1.89453 -0.78246,-0.31582 -1.56492,-0.63164 -2.3711,-0.95703 -0.33,-0.99 -0.66,-1.98 -1,-3 -1.12535,0.0232 -2.2507,0.0464 -3.41015,0.0703 -29.80135,0.43451 -58.068282,-7.69165 -80.589845,-28.07031 -3.495779,-3.65677 -3,-4.28755 -3,-10 26.73,0 53.459995,0 80.999995,0 0,-0.99 0,-1.98 0,-3 -1.32,0 -2.64,0 -4,0 0,-2.97 0,-5.94 0,-9 z"
       fill="#37424C"
       id="path4"
       style="fill:#000000" /><path
       d="m 53.564345,178.28099 c 27.06,0 54.119995,0 81.999995,0 5,30 5,30 5,36 -32.0409,1.12055 -59.600224,-4.92185 -83.999995,-27 -3.149619,-3.40518 -3,-3.92523 -3,-9 z"
       fill="#20252B"
       id="path11"
       style="fill:#000000;fill-opacity:1" /><path
       d="m 204.40809,283.15062 c 4.60046,0.006 9.20085,0.002 13.8013,-0.003 19.81083,-0.021 39.56517,0.12958 59.35495,1.13382 0,4.62 0,9.24 0,14 -43.89,0 -87.78,0 -133,0 0,-4.62 0,-9.24 0,-14 19.94743,-1.12658 39.87165,-1.15538 59.84375,-1.13037 z"
       fill="#566470"
       id="path13" /><path
       d="m 130.56434,165.28099 c 65.67,0 131.34,0 199,0 0,2.97 0,5.94 0,9 -65.67,0 -131.34,0 -199,0 0,-2.97 0,-5.94 0,-9 z"
       fill="#566470"
       id="path14" /><path
       style="fill:#000000;fill-opacity:1;stroke:#000000;stroke-width:0"
       d="m 131.27037,169.74616 v -4.14935 h 98.82998 98.82999 v 4.14935 4.14935 h -98.82999 -98.82998 z"
       id="path75" /><path
       style="fill:#000000;fill-opacity:1;stroke:#000000;stroke-width:0"
       d="m 144.85006,291.26902 v -6.35259 l 5.09238,-0.62095 c 6.51273,-0.79415 116.82519,-0.78386 122.59445,0.0114 l 4.33796,0.59799 v 6.35835 6.35834 h -66.0124 -66.01239 z"
       id="path76" /><path
       style="fill:#000000;fill-opacity:1;stroke:#000000;stroke-width:0"
       d="m 170.26906,280.26978 c 7.21112,-16.70631 7.90127,-28.73508 2.29283,-39.9625 -4.92991,-9.86911 -13.11214,-16.53039 -25.07134,-20.41096 -2.90454,-0.94248 -5.48929,-2.03267 -5.74389,-2.42264 -0.2546,-0.38997 -0.68426,-3.36325 -0.95481,-6.6073 -0.43474,-5.21288 -4.16484,-28.5981 -5.44584,-34.14176 l -0.47941,-2.07468 h 93.63695 93.63695 v 2.1426 c 0,3.66767 -2.92392,13.82896 -5.61191,19.50274 -7.39409,15.60733 -20.57373,28.63401 -36.08674,35.66794 -2.71791,1.23236 -8.94718,3.45479 -13.84283,4.93873 -11.90036,3.60716 -14.70466,4.93593 -18.55604,8.79245 -4.19457,4.20017 -5.87179,9.22344 -5.87179,17.58603 0,5.58688 0.26634,6.75702 2.5995,11.42073 1.42973,2.85785 3.23115,5.87402 4.00316,6.7026 1.40173,1.50445 1.34828,1.50651 -39.12044,1.50651 h -40.52409 z"
       id="path77" /></g><path
     d="m 160.91718,79.42752 0.004,-0.0056 a 1.789166,1.789166 0 0 1 -0.66494,0.879886 c -0.35916,0.252361 -0.86387,0.451307 -1.58621,0.486023 l -2.65704,0.0056 v -3.912136 c 0.38454,0.01067 2.08958,-0.01739 2.82928,0.02 0.96402,0.04671 1.56352,0.428603 1.88263,0.891918 0.34983,0.468657 0.39122,1.094864 0.19226,1.634277 z m -2.84265,-4.354081 c 0.67162,-0.03202 1.1376,-0.216302 1.47006,-0.448621 0.28574,-0.194942 0.5007,-0.490023 0.61419,-0.815815 0.17892,-0.500693 0.14287,-1.081513 -0.18158,-1.515449 -0.29774,-0.425933 -0.85186,-0.779757 -1.74378,-0.822486 -0.66092,-0.03468 -1.88663,-0.0039 -2.22176,-0.01338 v 3.617056 c 0.0333,0.0056 2.05487,-9.64e-4 2.06287,-9.64e-4 z m 15.32942,1.118899 c 0,8.848355 -7.17401,16.02238 -16.02238,16.02238 -8.84836,0 -16.02238,-7.174025 -16.02238,-16.02238 0,-8.84837 7.17402,-16.022385 16.02238,-16.022385 8.84837,0 16.02238,7.174015 16.02238,16.022385 z m -8.87907,2.859993 c 0.0293,-1.972088 -1.65564,-3.113691 -2.54755,-3.434132 0.95466,-0.655585 1.61025,-1.392611 1.61025,-2.783894 0,-2.209745 -2.19774,-3.244532 -3.53428,-3.376713 -0.10949,-0.01203 -0.41391,-0.01739 -0.41391,-0.01739 v -2.112286 h -2.18038 l 0.006,2.113624 H 156.007 v -2.105613 h -2.21692 v 2.094926 c -0.38989,0.0093 -2.73584,0.008 -2.73584,0.008 v 1.870606 h 0.76241 c 0.80245,0.02135 1.09753,0.483347 1.06549,0.903932 v 8.065938 a 0.54476099,0.54476099 0 0 1 -0.49536,0.522058 c -0.33247,0.01469 -0.82916,0 -0.82916,0 l -0.42726,2.120295 h 2.66506 v 2.13632 h 2.21775 v -2.124298 h 1.45671 v 2.128305 h 2.16836 v -2.120291 c 2.53554,0.06672 4.86412,-1.430003 4.88683,-3.889437 z"
     id="path1"
     style="fill:#ffffff;stroke-width:1.33521" /><text
     xml:space="preserve"
     style="font-weight:bold;font-size:131.975px;line-height:0;font-family:'Trebuchet MS';-inkscape-font-specification:'Trebuchet MS, Bold';text-align:start;letter-spacing:0px;writing-mode:lr-tb;direction:ltr;text-anchor:start;fill:#ffffff;stroke:#000000;stroke-width:0"
     x="93.780006"
     y="46.172626"
     id="text1"><tspan
       sodipodi:role="line"
       id="tspan1"
       x="93.780006"
       y="46.172626"
       style="font-style:normal;font-variant:normal;font-weight:bold;font-stretch:normal;font-size:41.6228px;font-family:Verdana;-inkscape-font-specification:'Verdana, Bold';font-variant-ligatures:normal;font-variant-caps:normal;font-variant-numeric:normal;font-variant-east-asian:normal;letter-spacing:0px;fill:#ffffff;stroke-width:0">ANVIL</tspan></text></svg>
