<?xml version="1.0" encoding="UTF-8" standalone="no"?>
<svg
   version="1.1"
   width="276.0242"
   height="133.00046"
   id="svg75"
   sodipodi:docname="anvil-wallet.svg"
   inkscape:version="1.4 (e7c3feb100, 2024-10-09)"
   xml:space="preserve"
   inkscape:export-filename="anvil3.png"
   inkscape:export-xdpi="96"
   inkscape:export-ydpi="96"
   xmlns:inkscape="http://www.inkscape.org/namespaces/inkscape"
   xmlns:sodipodi="http://sodipodi.sourceforge.net/DTD/sodipodi-0.dtd"
   xmlns="http://www.w3.org/2000/svg"
   xmlns:svg="http://www.w3.org/2000/svg"><defs
     id="defs75" /><sodipodi:namedview
     id="namedview75"
     pagecolor="#ffffff"
     bordercolor="#000000"
     borderopacity="0.25"
     inkscape:showpageshadow="2"
     inkscape:pageopacity="0.0"
     inkscape:pagecheckerboard="true"
     inkscape:deskcolor="#d1d1d1"
     inkscape:clip-to-page="false"
     inkscape:zoom="2.8284271"
     inkscape:cx="161.39712"
     inkscape:cy="72.124892"
     inkscape:window-width="1920"
     inkscape:window-height="1029"
     inkscape:window-x="0"
     inkscape:window-y="27"
     inkscape:window-maximized="1"
     inkscape:current-layer="svg75" /><g
     id="g77"
     transform="translate(-53.540138,-165.28098)"><path
       d="m 130.56434,165.28099 c 65.67,0 131.34,0 199,0 0,2.97 0,5.94 0,9 -2.31,0 -4.62,0 -7,0 -0.0412,1.155 -0.0825,2.31 -0.125,3.5 -1.96356,17.29025 -12.39573,33.55942 -25.40234,44.65625 -9.7385,7.43616 -19.98646,12.39302 -31.78516,15.40625 -8.21491,2.10721 -15.5363,4.45146 -20.1875,12.0625 -2.95172,6.64138 -3.81229,13.79624 -1.78125,20.88281 0.97252,2.31365 1.94396,4.36555 3.28125,6.49219 0.59813,1.05832 1.19625,2.11664 1.8125,3.20703 1.94977,2.28271 3.04041,2.76333 6.02857,3.36548 3.502,0.24383 6.96108,0.31004 10.47143,0.30249 1.21752,0.0206 2.43504,0.0413 3.68946,0.0625 2.99905,0.0471 5.99863,0.0583 8.99804,0.0625 0,4.62 0,9.24 0,14 -43.89,0 -87.78,0 -133,0 0,-4.62 0,-9.24 0,-14 7.92,-0.33 15.84,-0.66 24,-1 0.96938,-2.3925 1.93875,-4.785 2.9375,-7.25 0.30414,-0.74669 0.60828,-1.49338 0.92164,-2.26269 4.01635,-9.97849 5.07833,-20.65911 1.07836,-30.86231 -5.18559,-10.77677 -11.78598,-17.76516 -23.21093,-21.77344 -2.10793,-0.66592 -4.22617,-1.30049 -6.35547,-1.89453 -0.78246,-0.31582 -1.56492,-0.63164 -2.3711,-0.95703 -0.33,-0.99 -0.66,-1.98 -1,-3 -1.12535,0.0232 -2.2507,0.0464 -3.41015,0.0703 -29.80135,0.43451 -58.068282,-7.69165 -80.589845,-28.07031 -3.495779,-3.65677 -3,-4.28755 -3,-10 26.73,0 53.459995,0 80.999995,0 0,-0.99 0,-1.98 0,-3 -1.32,0 -2.64,0 -4,0 0,-2.97 0,-5.94 0,-9 z"
       fill="#37424C"
       id="path4"
       style="fill:#000000" /><path
       d="m 53.564345,178.28099 c 27.06,0 54.119995,0 81.999995,0 5,30 5,30 5,36 -32.0409,1.12055 -59.600224,-4.92185 -83.999995,-27 -3.149619,-3.40518 -3,-3.92523 -3,-9 z"
       fill="#20252B"
       id="path11"
       style="fill:#000000;fill-opacity:1" /><path
       d="m 204.40809,283.15062 c 4.60046,0.006 9.20085,0.002 13.8013,-0.003 19.81083,-0.021 39.56517,0.12958 59.35495,1.13382 0,4.62 0,9.24 0,14 -43.89,0 -87.78,0 -133,0 0,-4.62 0,-9.24 0,-14 19.94743,-1.12658 39.87165,-1.15538 59.84375,-1.13037 z"
       fill="#566470"
       id="path13" /><path
       d="m 130.56434,165.28099 c 65.67,0 131.34,0 199,0 0,2.97 0,5.94 0,9 -65.67,0 -131.34,0 -199,0 0,-2.97 0,-5.94 0,-9 z"
       fill="#566470"
       id="path14" /><path
       style="fill:#000000;fill-opacity:1;stroke:#000000;stroke-width:0"
       d="m 131.27037,169.74616 v -4.14935 h 98.82998 98.82999 v 4.14935 4.14935 h -98.82999 -98.82998 z"
       id="path75" /><path
       style="fill:#000000;fill-opacity:1;stroke:#000000;stroke-width:0"
       d="m 144.85006,291.26902 v -6.35259 l 5.09238,-0.62095 c 6.51273,-0.79415 116.82519,-0.78386 122.59445,0.0114 l 4.33796,0.59799 v 6.35835 6.35834 h -66.0124 -66.01239 z"
       id="path76" /><path
       style="fill:#000000;fill-opacity:1;stroke:#000000;stroke-width:0"
       d="m 170.26906,280.26978 c 7.21112,-16.70631 7.90127,-28.73508 2.29283,-39.9625 -4.92991,-9.86911 -13.11214,-16.53039 -25.07134,-20.41096 -2.90454,-0.94248 -5.48929,-2.03267 -5.74389,-2.42264 -0.2546,-0.38997 -0.68426,-3.36325 -0.95481,-6.6073 -0.43474,-5.21288 -4.16484,-28.5981 -5.44584,-34.14176 l -0.47941,-2.07468 h 93.63695 93.63695 v 2.1426 c 0,3.66767 -2.92392,13.82896 -5.61191,19.50274 -7.39409,15.60733 -20.57373,28.63401 -36.08674,35.66794 -2.71791,1.23236 -8.94718,3.45479 -13.84283,4.93873 -11.90036,3.60716 -14.70466,4.93593 -18.55604,8.79245 -4.19457,4.20017 -5.87179,9.22344 -5.87179,17.58603 0,5.58688 0.26634,6.75702 2.5995,11.42073 1.42973,2.85785 3.23115,5.87402 4.00316,6.7026 1.40173,1.50445 1.34828,1.50651 -39.12044,1.50651 h -40.52409 z"
       id="path77" /></g><path
     d="m 161.2791,87.785272 0.006,-0.0081 a 2.5985088,2.5985088 0 0 1 -0.96573,1.277909 c -0.52163,0.366518 -1.25464,0.655459 -2.30374,0.705879 l -3.85898,0.0081 v -5.68182 c 0.55849,0.0155 3.03482,-0.02526 4.10913,0.02904 1.4001,0.06784 2.27079,0.622485 2.73426,1.295384 0.50807,0.680658 0.56818,1.590134 0.27922,2.373555 z m -4.12854,-6.323682 c 0.97543,-0.04651 1.6522,-0.314148 2.13506,-0.651558 0.41499,-0.283125 0.72719,-0.711688 0.89201,-1.184855 0.25986,-0.727185 0.20751,-1.570743 -0.26371,-2.200974 -0.43243,-0.618606 -1.23721,-1.132485 -2.53259,-1.194544 -0.95989,-0.05037 -2.74006,-0.0056 -3.2268,-0.01943 v 5.253258 c 0.0484,0.0081 2.98441,-0.0014 2.99603,-0.0014 z m 22.2638,1.625042 c 0,12.850974 -10.41923,23.270228 -23.27023,23.270228 -12.85098,0 -23.27022,-10.419254 -23.27022,-23.270228 0,-12.850997 10.41924,-23.270232 23.27022,-23.270232 12.851,0 23.27023,10.419235 23.27023,23.270232 z m -12.89558,4.153732 c 0.0426,-2.864177 -2.40459,-4.522193 -3.69996,-4.987587 1.38651,-0.952144 2.33866,-2.02257 2.33866,-4.04321 0,-3.209339 -3.1919,-4.712221 -5.13304,-4.904194 -0.15901,-0.01747 -0.60115,-0.02526 -0.60115,-0.02526 v -3.067795 h -3.16668 l 0.008,3.069738 h -2.11756 v -3.0581 H 150.928 v 3.042582 c -0.56625,0.01354 -3.97341,0.01158 -3.97341,0.01158 v 2.716789 h 1.10729 c 1.16545,0.03101 1.59401,0.701992 1.54747,1.312832 v 11.714626 a 0.79118773,0.79118773 0 0 1 -0.71943,0.758214 c -0.48287,0.02133 -1.20424,0 -1.20424,0 l -0.62054,3.079427 h 3.87062 v 3.1027 h 3.22097 v -3.08524 h 2.11566 v 3.09106 h 3.14924 v -3.07942 c 3.68251,0.0969 7.06444,-2.076876 7.09742,-5.648854 z"
     id="path1"
     style="fill:#ffcc00;stroke-width:1.9392" /><text
     xml:space="preserve"
     style="font-weight:bold;font-size:133.434px;line-height:0;font-family:'Trebuchet MS';-inkscape-font-specification:'Trebuchet MS, Bold';text-align:start;letter-spacing:0px;writing-mode:lr-tb;direction:ltr;text-anchor:start;fill:#ffcc00;stroke:#000000;stroke-width:0"
     x="91.305122"
     y="43.320614"
     id="text1"><tspan
       sodipodi:role="line"
       id="tspan1"
       x="91.305122"
       y="43.320614"
       style="font-style:normal;font-variant:normal;font-weight:bold;font-stretch:normal;font-size:42.083px;font-family:Verdana;-inkscape-font-specification:'Verdana, Bold';font-variant-ligatures:normal;font-variant-caps:normal;font-variant-numeric:normal;font-variant-east-asian:normal;letter-spacing:0px;fill:#ffcc00;stroke-width:0">ANVIL</tspan></text></svg>
